<?xml version="1.0" encoding="UTF-8"?>
<svg id="Layer_2" data-name="Layer 2" xmlns="http://www.w3.org/2000/svg" viewBox="0 0 649.36 172.16">
  <defs>
    <style>
      .cls-1 {
        fill: #f97035;
      }

      .cls-2 {
        fill: #fff;
      }
    </style>
  </defs>
  <g id="_логотипы" data-name="логотипы">
    <g>
      <g>
        <path class="cls-2" d="M313,2.16V46.55c0,9.52-5.23,17.91-13.2,22.88-4.8,2.98-10.57,4.72-16.8,4.72s-12-1.74-16.8-4.72c-7.96-4.97-13.2-13.36-13.2-22.88V8.1l-30.16,30.17,35.87,35.88h-16.97l-27.39-27.39-6.23,6.22v21.17h-13.2V2.16h13.2V36.01L241.98,2.16h24.22V46.55c0,7.96,7.53,14.4,16.8,14.4s16.8-6.44,16.8-14.4V2.16h13.2Z"/>
        <path class="cls-2" d="M375.68,46.97h14.02c-4.2,15.67-18.14,27.19-34.7,27.19-19.88,0-36-16.6-36-37.08S335.12,0,355,0c16.56,0,30.5,11.52,34.7,27.19h-14.02c-3.62-8.03-11.52-13.6-20.68-13.6-12.59,0-22.8,10.51-22.8,23.48s10.21,23.48,22.8,23.48c9.16,0,17.06-5.57,20.68-13.59Z"/>
        <path class="cls-2" d="M408.88,14.2v18h30v12h-30v17.96h33.6v12h-46.8V2.16h13.2v.04h33.6V14.2h-33.6Z"/>
        <path class="cls-2" d="M513.28,2.04V74.04h-14.4l-37.2-53.14v53.14h-13.2V2.04h14.4l37.2,53.14V2.04h13.2Z"/>
        <path class="cls-2" d="M547.19,38.28l35.88,35.88h-16.97l-27.39-27.4-6.22,6.22v21.17h-13.2V2.16h13.2V36.02L566.34,2.16h16.96l-36.11,36.11Z"/>
        <path class="cls-2" d="M649.36,38.14c0,20.48-16.12,37.08-36,37.08s-36-16.6-36-37.08S593.48,1.06,613.36,1.06s36,16.6,36,37.08Zm-13.2,0c0-12.97-10.21-23.48-22.8-23.48s-22.8,10.52-22.8,23.48,10.21,23.48,22.8,23.48,22.8-10.52,22.8-23.48Z"/>
        <path class="cls-2" d="M255.4,136.16c0,17.38-12.31,31.88-28.68,35.25-2.29,.47-4.64,.73-7.06,.74h-24.7V100.16s24.64,0,24.66,0c2.73,.01,5.37,.33,7.92,.92,15.97,3.68,27.87,17.99,27.87,35.08Zm-13.2,0c0-12.59-10.2-22.8-22.8-22.8h-11.25v45.6h11.25c12.59,0,22.8-10.21,22.8-22.8Z"/>
        <path class="cls-2" d="M275.2,112.2v18h30v12h-30v17.96h33.6v12h-46.8V100.16h13.2v.04h33.6v12h-33.6Z"/>
        <path class="cls-2" d="M382,100.16l-26.88,72h-13.44l-26.88-72h13.44l20.16,54,20.16-54h13.44Z"/>
      </g>
      <g>
        <rect class="cls-1" x="25.99" y="48.17" width="90.97" height="13"/>
        <rect class="cls-1" x="38.99" y="113.15" width="90.97" height="13"/>
        <rect class="cls-1" x="38.99" y="48.17" width="13" height="90.97"/>
        <rect class="cls-1" x="103.96" y="35.18" width="13" height="90.97"/>
        <rect class="cls-1" x="115.05" y="1.44" width="13" height="84.28" transform="translate(4.79 98.71) rotate(-45)"/>
        <rect class="cls-1" x="27.89" y="1.44" width="13" height="84.28" transform="translate(27.89 98.71) rotate(-135)"/>
        <rect class="cls-1" x="115.05" y="88.6" width="13" height="84.28" transform="translate(115.06 309.13) rotate(-135)"/>
        <rect class="cls-1" x="27.89" y="88.6" width="13" height="84.28" transform="translate(-82.37 62.61) rotate(-45)"/>
      </g>
    </g>
  </g>
</svg>